<?xml version="1.0" standalone="no"?>
<!DOCTYPE svg PUBLIC "-//W3C//DTD SVG 20010904//EN"
 "http://www.w3.org/TR/2001/REC-SVG-20010904/DTD/svg10.dtd">
<svg version="1.0" xmlns="http://www.w3.org/2000/svg"
 width="32px" height="32px" viewBox="0 0 318.000000 324.000000"
 preserveAspectRatio="xMidYMid meet">
<metadata>
Created by potrace 1.13, written by Peter Selinger 2001-2015
</metadata>
<g transform="translate(0.000000,324.000000) scale(0.100000,-0.100000)"
fill="#ffffff" stroke="none">
<path d="M5 3179 c46 -367 414 -901 763 -1109 61 -36 81 -42 182 -55 62 -8
115 -16 116 -18 2 -1 -68 -3 -154 -2 -138 0 -165 -3 -223 -23 -165 -57 -260
-160 -311 -337 -19 -68 -22 -104 -22 -240 -1 -301 77 -618 285 -1157 46 -119
85 -216 87 -214 1 2 20 104 40 226 l38 223 -33 110 c-42 137 -73 277 -63 277
4 0 11 -11 14 -25 4 -14 30 -79 58 -146 l52 -121 34 123 35 123 -22 41 c-59
104 -94 175 -89 180 3 3 17 -12 31 -34 15 -22 46 -62 71 -90 l45 -50 31 57
c18 31 42 71 55 87 l23 31 -84 68 c-46 38 -82 71 -80 73 1 2 27 -11 57 -29 30
-18 74 -42 97 -52 l43 -19 32 30 c18 17 53 47 80 66 l47 36 -32 5 c-18 3 -76
13 -128 22 -52 8 -122 22 -155 30 -62 16 -158 54 -152 60 2 2 34 -5 71 -16
115 -32 255 -44 360 -30 182 25 306 88 441 224 140 142 211 284 239 482 7 56
23 118 34 141 71 139 291 220 803 297 90 14 222 31 292 38 296 28 -72 47 -478
24 l-280 -16 -50 57 c-99 112 -233 172 -357 160 -162 -17 -315 -151 -343 -300
-4 -20 -9 -37 -10 -37 -2 0 -57 33 -122 73 -310 193 -1317 788 -1360 804 -13
5 -14 -1 -8 -48z m2025 -659 c29 -29 26 -74 -6 -99 -15 -12 -34 -21 -44 -21
-10 0 -29 9 -44 21 -50 40 -21 119 44 119 17 0 39 -9 50 -20z"/>
<path d="M832 2983 l3 -186 275 -169 c151 -93 288 -176 304 -184 l28 -16 -23
42 c-30 53 -142 202 -233 309 -91 108 -346 391 -352 391 -2 0 -3 -84 -2 -187z"/>
</g>
</svg>
