<?xml version="1.0" encoding="iso-8859-1"?>
<!DOCTYPE svg PUBLIC "-//W3C//DTD SVG 1.1//EN" "http://www.w3.org/Graphics/SVG/1.1/DTD/svg11.dtd">
<svg xmlns="http://www.w3.org/2000/svg" width="100" height="100" viewBox="0 0 143 120" version="1.1">
  <g id="snoo" stroke="none" stroke-width="1" fill="none" fill-rule="evenodd">
    <g id="reddit-alien" transform="translate(3.000000, 3.000000)" stroke-width="5.5">
      <path d="M26.93 56.18C26.93 63.65 20.88 69.69 13.42 69.69 5.95 69.69-0.09 63.65-0.09 56.18 -0.09 48.72 5.95 42.67 13.42 42.67 20.88 42.67 26.93 48.72 26.93 56.18L26.93 56.18Z" id="Left-Ear" stroke="#FFFFFF" fill="#FFFFFF"/>
      <path d="M137.44 56.18C137.44 63.65 131.39 69.69 123.93 69.69 116.47 69.69 110.42 63.65 110.42 56.18 110.42 48.72 116.47 42.67 123.93 42.67 131.39 42.67 137.44 48.72 137.44 56.18L137.44 56.18Z" id="Right-Ear" stroke="#FFFFFF" fill="#FFFFFF"/>
      <path d="M106.13 8.76C106.13 8.76 106.13 8.76 79.11 2.4L69.18 33.79" id="Antenna-Stalk" stroke="#FFFFFF" stroke-linecap="round" stroke-linejoin="round"/>
      <path d="M127.81 10.95C127.81 16.83 123.04 21.6 117.16 21.6 111.27 21.6 106.51 16.83 106.51 10.95 106.51 5.06 111.27 0.3 117.16 0.3 123.04 0.3 127.81 5.06 127.81 10.95L127.81 10.95Z" id="Antenna" stroke="#FFFFFF" fill="#FFFFFF"/>
      <path d="M129.57 74.76C129.57 96.82 102.18 114.7 68.38 114.7 34.59 114.7 7.19 96.82 7.19 74.76 7.19 52.71 34.59 34.83 68.38 34.83 102.18 34.83 129.57 52.71 129.57 74.76L129.57 74.76Z" id="Head" stroke="#FFFFFF" fill="#FFFFFF"/>
      <path d="M54.29 66.97C54.29 70.92 51.09 74.11 47.14 74.11 43.19 74.11 39.99 70.92 39.99 66.97 39.99 63.02 43.19 59.81 47.14 59.81 51.09 59.81 54.29 63.02 54.29 66.97L54.29 66.97Z" id="Left-Eye" stroke="#FFFFFF" fill="#FFFFFF"/>
      <path d="M97.4 66.97C97.4 70.92 94.2 74.11 90.25 74.11 86.31 74.11 83.1 70.92 83.1 66.97 83.1 63.02 86.31 59.81 90.25 59.81 94.2 59.81 97.4 63.02 97.4 66.97L97.4 66.97Z" id="Right-Eye" stroke="#FFFFFF" fill="#FFFFFF"/>
      <path d="M47.54 93.15C52.87 98.47 61.47 99.5 68.6 99.5M89.82 93.15C84.48 98.47 75.89 99.5 68.75 99.5" id="Smile" stroke="#FFFFFF" stroke-linecap="round"/>
    </g>
  </g>
</svg>